<svg width="16" height="16" viewBox="0 0 16 16" xmlns="http://www.w3.org/2000/svg">
  <path d="M 13.799 2.80101 C 15.3518 4.35383 15.3989 6.84222 13.9402 8.45174 L 13.799 8.6 L 8 14.399 L 2.20101 8.6 L 2.05984 8.45174 C 0.601134 6.84222 0.648189 4.35383 2.20101 2.80101 C 3.75383 1.24819 6.24222 1.20113 7.85174 2.65984 L 8 2.80101 L 8.14826 2.65984 C 9.75778 1.20113 12.2462 1.24819 13.799 2.80101 Z M 12.7383 3.86167 C 11.8017 2.92504 10.3211 2.84921 9.32195 3.62897 L 9.1826 3.74619 L 8 4.87218 L 6.84443 3.7713 C 5.82119 2.84394 4.24291 2.88043 3.26167 3.86167 C 2.32504 4.7983 2.24921 6.27894 3.02897 7.27805 L 3.14619 7.4174 L 3.26167 7.53934 L 8 12.278 L 12.7126 7.56566 L 12.8287 7.44443 C 13.7157 6.46568 13.7209 4.9791 12.861 3.99295 L 12.7383 3.86167 Z" fill="red"/>
</svg>
